<svg width="211" height="211" viewBox="0 0 211 211" fill="none" xmlns="http://www.w3.org/2000/svg">
<path d="M210.609 0.562042L191.478 189.54L105.481 210.562L19.7207 189.57L0.609375 0.562042H210.609Z" fill="#264DE4"/>
<path d="M105.61 194.494L175.1 177.507L191.449 16.0163H105.61V194.494Z" fill="#2965F1"/>
<path d="M105.61 86.1165H44.4219L46.7782 109.297H105.61V86.1165Z" fill="#EBEBEB"/>
<path d="M105.61 39.1976H105.519H39.688L42.0778 62.3788H105.61V39.1976Z" fill="#EBEBEB"/>
<path d="M47.9521 120.888L51.6353 157.286L105.488 170.468L105.609 170.438V146.32L105.494 146.347L76.2147 139.376L74.343 120.888H60.1156H47.9521Z" fill="#EBEBEB"/>
<path d="M137.892 109.297L134.84 139.361L105.519 146.34V170.457L159.414 157.286L159.809 153.369L165.987 92.3415L166.629 86.1167L171.375 39.1977H105.519V62.379H142.564L140.171 86.1167H105.519V109.297H137.892Z" fill="white"/>
</svg>
