<svg width="211" height="211" viewBox="0 0 211 211" fill="none" xmlns="http://www.w3.org/2000/svg">
<g clip-path="url(#clip0_55:33)">
<path d="M29.8315 189.098L12.979 0.0914459H198.147L181.281 189.072L105.445 210.085L29.8315 189.098Z" fill="#E44D26"/>
<path d="M166.837 177.036L181.255 15.5461H105.563V194.026L166.837 177.036Z" fill="#F16529"/>
<path d="M105.484 38.7249H47.4321L53.6862 108.826H105.563V85.6468H74.8896L72.7699 61.9102H105.563V38.7249H105.484ZM105.563 145.772L105.464 145.799L79.6474 138.829L78.0068 120.343H54.7231L57.9715 156.738L105.458 169.863L105.563 169.83V145.772Z" fill="#EBEBEB"/>
<path d="M105.484 108.825H134.031L131.406 138.882L105.55 145.858V169.975L153.076 156.804L159.441 85.6336H105.563L105.484 108.825ZM162.998 44.9461L163.549 38.7249H105.471V61.9036H161.462L161.922 56.693L162.998 44.9461Z" fill="white"/>
</g>
<defs>
<clipPath id="clip0_55:33">
<rect width="210" height="210" fill="white" transform="translate(0.562988 0.0848846)"/>
</clipPath>
</defs>
</svg>
