<svg width="33" height="32" viewBox="0 0 33 32" fill="none" xmlns="http://www.w3.org/2000/svg">
<path d="M5.00732 22V9C5.00732 8.46957 5.21804 7.96086 5.59311 7.58579C5.96818 7.21071 6.47689 7 7.00732 7H25.0073C25.5378 7 26.0465 7.21071 26.4215 7.58579C26.7966 7.96086 27.0073 8.46957 27.0073 9V22" stroke="#454545" stroke-width="2" stroke-linecap="round" stroke-linejoin="round"/>
<path d="M3.00732 22H29.0073V24C29.0073 24.5304 28.7966 25.0391 28.4215 25.4142C28.0465 25.7893 27.5378 26 27.0073 26H5.00732C4.47689 26 3.96818 25.7893 3.59311 25.4142C3.21804 25.0391 3.00732 24.5304 3.00732 24V22Z" stroke="#454545" stroke-width="2" stroke-linecap="round" stroke-linejoin="round"/>
<path d="M18.0073 11H14.0073" stroke="#454545" stroke-width="2" stroke-linecap="round" stroke-linejoin="round"/>
</svg>
