<svg width="33" height="32" viewBox="0 0 33 32" fill="none" xmlns="http://www.w3.org/2000/svg">
<path d="M24.0073 27V5C24.0073 3.89543 23.1119 3 22.0073 3L10.0073 3C8.90275 3 8.00732 3.89543 8.00732 5L8.00732 27C8.00732 28.1046 8.90275 29 10.0073 29H22.0073C23.1119 29 24.0073 28.1046 24.0073 27Z" stroke="#454545" stroke-width="2" stroke-linecap="round" stroke-linejoin="round"/>
<path d="M16.0073 9C16.8358 9 17.5073 8.32843 17.5073 7.5C17.5073 6.67157 16.8358 6 16.0073 6C15.1789 6 14.5073 6.67157 14.5073 7.5C14.5073 8.32843 15.1789 9 16.0073 9Z" fill="#454545"/>
</svg>
