<svg width="210" height="187" viewBox="0 0 210 187" fill="none" xmlns="http://www.w3.org/2000/svg">
<path fill-rule="evenodd" clip-rule="evenodd" d="M104.609 55.2604C129.787 55.2604 153.176 58.8732 170.812 64.9444C192.06 72.2597 205.125 83.3477 205.125 93.388C205.125 103.851 191.279 115.63 168.461 123.19C151.21 128.906 128.509 131.889 104.609 131.889C80.1053 131.889 56.9013 129.089 39.456 123.128C17.3846 115.583 4.09082 103.651 4.09082 93.388C4.09082 83.4292 16.5645 72.4268 37.5142 65.1227C55.2155 58.9513 79.1824 55.2604 104.606 55.2604L104.609 55.2604Z" stroke="#00D8FF" stroke-width="8"/>
<path fill-rule="evenodd" clip-rule="evenodd" d="M71.4185 74.4341C83.9968 52.6236 98.8105 34.1669 112.88 21.9227C129.832 7.17028 145.964 1.39282 154.661 6.4081C163.725 11.6349 167.013 29.5142 162.163 53.0569C158.499 70.8565 149.74 92.0113 137.8 112.715C125.558 133.943 111.54 152.645 97.6622 164.775C80.1011 180.126 63.1231 185.682 54.2323 180.554C45.605 175.583 42.3058 159.278 46.4445 137.48C49.9414 119.063 58.7171 96.4577 71.4144 74.4337L71.4185 74.4341Z" stroke="#00D8FF" stroke-width="8"/>
<path fill-rule="evenodd" clip-rule="evenodd" d="M71.4496 112.771C58.8357 90.9852 50.2477 68.9291 46.6629 50.6249C42.3478 28.5707 45.3987 11.7086 54.0881 6.67872C63.143 1.43655 80.2746 7.51753 98.2488 23.4773C111.839 35.5436 125.793 53.6942 137.768 74.3788C150.045 95.5856 159.247 117.07 162.826 135.152C167.355 158.033 163.69 175.516 154.807 180.658C146.188 185.648 130.417 180.365 113.599 165.893C99.39 153.666 84.1879 134.773 71.4496 112.771L71.4496 112.771Z" stroke="#00D8FF" stroke-width="8"/>
<path d="M104.609 112.14C114.966 112.14 123.362 103.745 123.362 93.388C123.362 83.0313 114.966 74.6355 104.609 74.6355C94.2527 74.6355 85.8569 83.0313 85.8569 93.388C85.8569 103.745 94.2527 112.14 104.609 112.14Z" fill="#00D8FF"/>
</svg>
