<svg width="211" height="211" viewBox="0 0 211 211" fill="none" xmlns="http://www.w3.org/2000/svg">
<path d="M0.561768 105.486V210.486H210.568V0.478951H0.561768V105.486ZM169.799 97.1183C175.131 98.4505 179.2 100.82 182.934 104.685C184.87 106.752 187.734 110.519 187.967 111.418C188.033 111.681 178.901 117.816 173.366 121.252C173.169 121.383 172.365 120.52 171.462 119.185C168.762 115.247 165.93 113.551 161.596 113.252C155.23 112.819 151.096 116.153 151.161 121.718C151.161 123.352 151.391 124.317 152.06 125.655C153.461 128.556 156.064 130.288 164.227 133.826C179.262 140.29 185.693 144.555 189.69 150.626C194.152 157.392 195.156 168.193 192.124 176.226C188.791 184.961 180.525 190.893 168.893 192.862C165.294 193.495 156.759 193.397 152.894 192.698C144.461 191.198 136.461 187.031 131.526 181.565C129.59 179.432 125.827 173.863 126.06 173.46C126.158 173.329 127.028 172.794 127.996 172.226L135.795 167.731L141.833 164.23L143.099 166.1C144.865 168.801 148.733 172.498 151.066 173.732C157.766 177.266 166.967 176.764 171.499 172.699C173.434 170.933 174.232 169.099 174.232 166.399C174.232 163.964 173.936 162.898 172.667 161.067C171.033 158.737 167.699 156.768 158.229 152.667C147.394 148.001 142.729 145.1 138.463 140.5C135.995 137.832 133.662 133.566 132.694 130C131.894 127.033 131.694 119.598 132.327 116.599C134.558 106.099 142.459 98.8312 153.862 96.6655C157.563 95.9666 166.166 96.2324 169.796 97.1315L169.799 97.1183ZM120.498 105.879L120.564 114.476H93.2308V192.143H73.8977V114.476H46.5649V106.043L46.7946 97.3808C46.893 97.2496 63.529 97.184 83.6955 97.2168L120.396 97.3152L120.498 105.879Z" fill="#007ACC"/>
</svg>
